<svg width="50" height="50" viewBox="0 0 50 50" fill="none" xmlns="http://www.w3.org/2000/svg">
<rect width="50" height="50" fill="white"/>
<path d="M29.9467 25.9467C31.2539 24.9182 32.208 23.5079 32.6763 21.9119C33.1446 20.3159 33.1039 18.6137 32.5597 17.042C32.0155 15.4702 30.995 14.1072 29.6401 13.1425C28.2852 12.1778 26.6633 11.6593 25 11.6593C23.3367 11.6593 21.7148 12.1778 20.3599 13.1425C19.005 14.1072 17.9845 15.4702 17.4403 17.042C16.8961 18.6137 16.8553 20.3159 17.3237 21.9119C17.792 23.5079 18.7461 24.9182 20.0533 25.9467C17.8134 26.844 15.859 28.3325 14.3985 30.2532C12.938 32.174 12.0261 34.4551 11.76 36.8533C11.7407 37.0284 11.7562 37.2056 11.8054 37.3747C11.8546 37.5439 11.9366 37.7017 12.0468 37.8391C12.2694 38.1166 12.593 38.2944 12.9467 38.3333C13.3003 38.3722 13.6549 38.2691 13.9324 38.0465C14.21 37.824 14.3878 37.5003 14.4267 37.1467C14.7194 34.5403 15.9622 32.1331 17.9176 30.385C19.873 28.637 22.4039 27.6707 25.0267 27.6707C27.6495 27.6707 30.1803 28.637 32.1357 30.385C34.0911 32.1331 35.3339 34.5403 35.6267 37.1467C35.6629 37.4743 35.8192 37.7769 36.0655 37.996C36.3117 38.2152 36.6304 38.3353 36.96 38.3333H37.1067C37.4562 38.2931 37.7756 38.1164 37.9954 37.8417C38.2152 37.5669 38.3175 37.2165 38.28 36.8667C38.0127 34.4616 37.0958 32.1746 35.6278 30.2509C34.1598 28.3272 32.1959 26.8393 29.9467 25.9467V25.9467ZM25 25C23.9452 25 22.914 24.6872 22.037 24.1012C21.1599 23.5151 20.4763 22.6822 20.0726 21.7076C19.669 20.7331 19.5634 19.6607 19.7691 18.6262C19.9749 17.5916 20.4829 16.6413 21.2288 15.8954C21.9746 15.1495 22.9249 14.6416 23.9595 14.4358C24.9941 14.23 26.0664 14.3356 27.041 14.7393C28.0155 15.143 28.8485 15.8266 29.4345 16.7036C30.0205 17.5807 30.3333 18.6118 30.3333 19.6667C30.3333 21.0811 29.7714 22.4377 28.7712 23.4379C27.771 24.4381 26.4145 25 25 25Z" fill="url(#paint0_linear_1117_5)"/>
<defs>
<linearGradient id="paint0_linear_1117_5" x1="11.6667" y1="23.6667" x2="38.3333" y2="23.6667" gradientUnits="userSpaceOnUse">
<stop stop-color="#FF55A5"/>
<stop offset="1" stop-color="#FF5860"/>
</linearGradient>
</defs>
</svg>
